<svg width="525" height="386" xmlns="http://www.w3.org/2000/svg" xmlns:xlink="http://www.w3.org/1999/xlink" overflow="hidden"><defs><clipPath id="clip0"><rect x="1575" y="827" width="525" height="386"/></clipPath></defs><g clip-path="url(#clip0)" transform="translate(-1575 -827)"><path d="M1625.26 948.915C1619.24 906.773 1650.27 867.962 1694.58 862.23 1712.54 859.907 1730.8 863.379 1746.43 872.091 1763 842.39 1801.71 831.102 1832.9 846.879 1838.36 849.638 1843.36 853.134 1847.76 857.26 1860.67 832.64 1892.1 822.637 1917.96 834.918 1925.12 838.318 1931.37 843.234 1936.22 849.289 1957.02 826.006 1993.77 823.13 2018.3 842.865 2028.62 851.16 2035.57 862.6 2037.96 875.225 2072.04 884.068 2092.14 917.564 2082.86 950.041 2082.08 952.771 2081.1 955.446 2079.93 958.047 2107.26 991.887 2100.57 1040.39 2064.99 1066.38 2053.91 1074.47 2040.83 1079.71 2027.01 1081.59 2026.7 1118 1995.39 1147.27 1957.09 1146.98 1944.29 1146.88 1931.77 1143.42 1920.91 1136.98 1907.95 1177.8 1862.75 1200.87 1819.96 1188.51 1802.02 1183.33 1786.53 1172.38 1776.11 1157.52 1732.3 1182.66 1675.42 1169.13 1649.08 1127.32 1648.75 1126.79 1648.43 1126.26 1648.11 1125.73 1619.43 1128.92 1593.45 1109.46 1590.09 1082.25 1588.29 1067.75 1593.33 1053.24 1603.84 1042.58 1579.01 1028.68 1570.67 998.164 1585.21 974.422 1593.6 960.725 1608.32 951.671 1624.83 950.043Z" stroke="#2F528F" stroke-width="4.58333" stroke-miterlimit="8" fill="#4472C4" fill-rule="evenodd"/><path d="M1634.77 1047.85C1624.17 1048.64 1613.57 1046.31 1604.4 1041.17M1661.57 1120.94C1657.31 1122.55 1652.84 1123.63 1648.28 1124.14M1776.08 1156.06C1772.88 1151.49 1770.19 1146.6 1768.08 1141.48M1924.16 1119.7C1923.69 1125.13 1922.61 1130.49 1920.96 1135.7M1987.73 1020.85C2011.77 1031.97 2026.93 1055.23 2026.72 1080.64M2079.69 957.161C2075.8 965.812 2069.85 973.486 2062.33 979.582M2038.03 873.968C2038.7 877.461 2039 881.007 2038.95 884.557M1927.17 861.616C1929.43 856.731 1932.42 852.182 1936.06 848.112M1843.99 868.052C1844.91 864.015 1846.36 860.103 1848.29 856.405M1746.37 872.007C1752.03 875.159 1757.26 878.953 1761.96 883.306M1627.99 960.806C1626.75 956.918 1625.84 952.943 1625.27 948.918" stroke="#2F528F" stroke-width="4.58333" stroke-miterlimit="8" fill="none" fill-rule="evenodd"/><path d="M20.0521-2.85763e-05 20.0523 152.979-20.0519 152.979-20.0521 2.85763e-05ZM60.1564 132.927 0.000360892 253.24-60.1561 132.927Z" fill="#FFFFFF" transform="matrix(1 0 0 -1 1843 1212.24)"/></g></svg>